<?xml version="1.0" encoding="utf-8"?>
<!-- Generator: Adobe Illustrator 19.0.0, SVG Export Plug-In . SVG Version: 6.00 Build 0)  -->
<svg version="1.1" id="Layer_1" xmlns="http://www.w3.org/2000/svg" xmlns:xlink="http://www.w3.org/1999/xlink" x="0px" y="0px"
	 viewBox="0 0 480 640" style="enable-background:new 0 0 480 640;" xml:space="preserve">
<!-- <style type="text/css">
	.st0{fill:#FFFFFF;}
</style> -->
<g id="XMLID_10_">
	<path id="XMLID_9_" class="st0" d="M144.5,341.1"/>
	<path id="XMLID_8_" class="st0" d="M22.4,363.5"/>
	<polygon id="XMLID_7_" class="st0" points="9,526.7 16.5,528.1 42.6,510.8 54.5,509.4 65,512.8 67,528.1 72.3,538.4 81.8,548.7 
		95.7,557.2 109.4,559 121.2,557.6 124.8,554.2 126.6,549.7 126.6,545.3 125.4,533.4 121.8,524.9 116.9,517.2 109,510.2 
		102.4,506.9 94.9,504.9 90.9,503.7 89.2,503.7 87.4,504.9 85.6,506.3 85.4,509 85.4,512.8 87.2,515 91.9,515.4 96.5,516 102,519.3 
		106,522.9 109.4,526.9 111.5,531.4 112.9,535.2 113.3,540.4 113.5,543.5 113.3,545.3 113.3,546.7 104.8,547.3 96.7,544.3 
		91.3,541.2 84.4,534.8 78.5,525.1 76.9,515.4 76.9,510 77.1,506.5 73.1,503.7 67.8,502.1 67.8,500.7 76.5,496.7 91.7,491.6 
		115.9,485 150.5,479.1 170.7,476.5 190.7,473.9 225.8,471.4 247.7,471.4 256.7,476.3 258.8,478.5 258.8,489.4 260,502.1 265.6,512 
		274.5,519.1 284.4,522.9 292.3,523.9 297,521.7 300,516.4 300,507.8 299.2,497.7 295.3,490.2 289.9,482.5 285.4,478.1 282.6,477.3 
		279.4,477.9 277.6,480.9 277.6,484.8 281.8,489.2 284.8,493.2 286.4,495.6 287.5,500.1 287.5,502.9 287.5,505.9 287.5,507.8 
		287.5,510.4 284.6,510.4 280,507.6 278,506.1 274.5,503.3 271.7,499.1 270.9,495.2 270.3,490.8 269.5,487.8 269.5,479.9 
		269.1,476.5 269.1,473.3 277.6,472.9 285.4,473.1 297.8,474.3 306.4,475.1 323,477.9 341.4,480.7 361,483.9 395.4,493.6 
		406.5,497.1 418.6,502.9 429.5,507.6 443.6,514 454.2,520.9 459.2,524.7 466.1,527.3 470.9,527.3 472.7,524.3 472.7,521.3 
		471.1,518.4 467.7,515.2 464.3,513.2 449.3,504.1 437.8,498.3 423,492.2 406.5,486.4 395.6,482.5 389.7,480.1 397,474.9 399,470.2 
		399,466.4 400.6,461.1 406.9,457.5 411.1,455.5 415.6,454.1 419.4,454.1 421.6,454.1 421.8,456.9 421.8,458.7 419,461.1 417,463.2 
		412.5,465.4 409.7,465.8 407.3,465.8 405.7,466.6 404.2,469.4 403.8,472 404.2,474.7 405.3,475.5 408.7,476.9 413.7,478.3 
		418.8,475.7 425.3,472.2 429.3,467.6 432.7,462.4 434.8,457.5 435.2,453.1 434.4,449.9 431.5,446.4 426.3,443.6 420,442.2 
		412.3,442.2 406.3,444.4 399.6,447 395.6,450.5 391.7,455.7 389.9,458.5 388.3,461.4 387.9,463.2 386.3,466 386.3,468.4 
		382.2,470.8 377,473.3 372.5,474.1 352.5,470.8 327.7,466.4 313.5,464.4 291.1,462.6 270.7,461.1 252.9,460.9 237.3,460.7 
		222.8,460.5 209.9,460.5 189.7,462.2 174.1,463.4 155.9,466.2 137.1,469.2 123,472 110,475.5 102.4,477.5 95.5,478.7 93.9,478.9 
		95.5,475.1 96.9,471.2 95.7,468.6 93.3,466.2 89.6,462 88.8,457.7 89.2,454.3 89.8,451.5 91.9,448.4 93.3,445.8 96.1,443 
		97.9,441.4 99.7,444.4 101.6,448 101.6,452.1 101.6,453.9 100.6,457.1 99.5,458.7 99.5,462.2 100.1,466 103.2,467.8 106.4,468 
		109.6,464.8 112.7,459.1 113.5,454.5 113.1,448.6 112.3,443.4 107.6,434.5 104.4,430.1 102.4,428.1 99.1,428.1 96.7,428.1 
		94.5,429.7 91.3,431.1 88.6,433.7 85,437.1 83,440.6 80.3,445.4 78.5,450.9 78.3,456.1 77.9,462.6 79.3,465 81,468.6 82,469.4 
		83,472 82.2,475.3 78.9,481.1 76.9,484.4 69.4,486.4 50.8,493.5 39.3,498.9 29.2,504.9 21.7,509.6 14.7,513.6 9,517.6 7.6,520.5 
		7.6,523.9 	"/>
	<polygon id="XMLID_6_" class="st0" points="178.6,360.9 186.5,375 191.6,350.4 191.6,334.5 189.6,319.3 184.1,303 173.8,287.1 
		165.3,278.4 161.3,276.6 158.2,276.6 155.2,279.8 153.8,282.8 151,293.1 149.3,306.6 149.3,322.8 151.4,341.3 157.4,359.3 
		166.1,377.2 182.5,401.7 201.5,421.2 220.5,437.8 239.7,450.5 260.7,436.6 276,423.2 292.4,406.5 304.3,390.4 313.8,374 
		322.9,357.1 328.8,339.5 331,322 331,308.6 329.6,295.9 326.8,286.7 324.5,281.8 322.9,279 321.3,277.4 319.3,276.6 317.7,276.6 
		315,277.6 311.8,280.8 308.2,284.8 304.3,289.1 300.9,293.7 299.1,297.4 297.1,301.8 294.2,308.2 291.8,315.7 289.8,324.4 
		289,329.2 288.6,336.1 288.4,342.7 288.6,351 289.6,359.9 290.6,367.4 291.5,370.2 292.5,372.4 301.7,357.2 300.3,345.8 
		300.5,336.5 302.1,326.2 304.3,317.9 306.1,310.9 310.4,301 312,297.1 313.4,295.5 315.6,294.5 317.1,294.9 317.9,296.5 317.5,299 
		317.7,303 317.7,306.2 317.7,309.9 317.7,313.1 317.7,317.9 317.7,325 316,333.7 313,346 305.7,363.5 298.5,377 292.2,385.7 
		285.5,395.4 279.1,403.7 271.2,412.1 264.5,418.4 256,426.3 247.8,432.3 242.3,435.1 240.2,436 232.6,431.5 224.9,425.9 
		215.6,417.8 206.7,410.1 197,399.2 190,390.4 184.5,383.9 173.6,365.3 168.5,352.8 163.9,339.1 161.5,328.6 161.3,320.4 
		160.7,312.5 160.9,307 161.3,303.8 161.5,297.4 162.1,295.7 162.9,294.7 165.5,294.7 167.1,297.4 168.3,300 170.2,304 173.2,309.7 
		175,312.5 176.8,316.3 177.2,319.1 177.6,322.6 178.6,328.8 179.1,335.5 179.3,341.1 179.7,348.6 179.3,352.6 179.1,357.3 	"/>
	<polygon id="XMLID_5_" class="st0" points="169.6,393.5 177.1,404.4 173.5,412.9 170.5,417.4 167.5,417.4 163.9,416.2 160,414.5 
		156,411.5 152.7,409.5 140.8,397.4 129.5,384.3 117.6,367.1 108.7,350.2 100.8,332.6 94.8,314.1 89.3,295.1 87.3,283.4 85.7,268.7 
		84.7,263 84.7,248.5 84.7,237.4 86.9,208.2 92.1,183.7 101,155.3 103.6,152.5 106.9,151.5 117.8,154.5 134.2,159.5 151.9,164.8 
		167.7,172 183.1,179.5 199.4,188.6 215.2,201.3 226.1,210.4 232.4,216.2 236.8,222.7 240.6,228.1 246.5,218.8 260.4,204.7 
		280.9,188.4 310.8,172.6 344.1,160.5 357,156.5 373.4,151.5 377,151.5 380.9,154.5 382.9,161.1 389,179.1 392.6,196.5 395,210.8 
		397.8,225.7 397.8,262.8 394.4,285.2 383.9,323.6 367.1,361.9 352,383.3 335,401.8 316.6,417.4 313.2,417.4 309.9,415.2 
		306.7,410.7 303.5,404.7 311.6,394.1 316.2,401 318.2,401.4 332.2,387.9 348.9,367.5 361.1,346.2 367.9,330.8 374.6,311 
		381.5,288.9 384.1,275.3 386.3,263.4 386.1,253.5 386.5,227.7 382.1,203.3 377.4,179.9 374.2,171.4 372.8,167.6 371.2,165.8 
		368.7,165.2 355.8,168.6 325.5,179.7 300.7,191.2 282.3,201.7 267.9,213.2 255,228.7 249.5,238.4 246.7,246.9 244.7,251.5 
		241.2,253.5 237.6,252.3 234.2,247.3 231.8,238.4 222.5,223.5 201.4,203.7 178.8,190.4 152.3,177.7 140.6,173.5 130.3,170.6 
		121.6,167.2 113.1,164.6 110.5,164.6 107.7,172 103.2,187.4 99.2,207.7 97.6,218.2 97.4,224.9 96.2,258.4 97.6,274.3 104.9,307.2 
		116.4,338.3 131.9,365.7 147.3,385.3 155.2,393.6 164.3,401.6 	"/>
	<polygon id="XMLID_4_" class="st0" points="222.7,247.1 214.7,255.6 219.3,263.6 229.2,281.5 235.1,296.3 235.8,300.1 244.9,300.1 
		248.8,288.8 254.4,276.2 261,266.4 266.4,258.5 267.8,257.1 259.4,248 258.2,247.1 253.4,254.8 247.4,264.8 244.9,268.8 242.8,272 
		242.1,273.6 241.2,274.3 240,274.3 236.2,268 232.5,262 227.6,255.1 	"/>
	<polygon id="XMLID_3_" class="st0" points="260.9,231.9 268.9,223.7 274.3,234.2 282.2,244.5 294.7,252.9 305.7,256.5 317.4,257.5 
		330.3,255.5 338.8,250.8 346.3,245.6 353.2,237.6 357.2,229.8 359.4,224.7 360,219.3 360,213.6 359.5,213.1 341,212.6 331.4,214.6 
		322.9,216.7 314.6,219.2 306.4,223 295.8,229.1 289.9,233.6 286.4,235.9 285.2,236.5 279.5,227.4 278.8,225.9 294,216.4 
		311.2,207.8 324.6,203.8 333.5,202.2 343.7,201 361,201 367.6,202.4 372.3,205.1 373.4,207.4 374.1,210.3 374.1,213.5 374.1,217.5 
		373.5,221.3 370.7,227.8 367.8,235.6 364.2,242.7 358.7,249.2 352.8,254.4 345.1,260.2 335.2,264.8 325.1,267.1 317.3,268.5 
		306.8,267.7 294.8,265.3 286.3,260.8 276.5,254.7 270.3,247.1 265.8,242.1 262.4,236.9 	"/>
	<polygon id="XMLID_2_" class="st0" points="210.6,190.1 225.3,201 225,196 222.2,185.3 213.4,171.9 202.5,161.8 184.8,152.5 
		158.1,143.1 142.7,136.7 125.7,128 118.4,122.3 112.8,117.1 107.9,110.5 105,105.9 103.7,102.4 103.3,99.9 110,103.3 116.4,107.1 
		122.4,109.2 130,111.2 141.6,112.5 149.1,112.4 161,110.3 191.6,104.4 206.5,101.9 220.4,100.5 234.6,100.5 249.9,100.4 265,101.5 
		284.8,104 316.1,109.9 324.8,112.2 343.1,112.4 351.9,111.9 358.6,108.5 369.2,104 374.3,101.4 376.8,99.9 379.2,98.4 376.9,105.3 
		373.9,109.9 367.9,117.7 355.8,127.4 346.1,132.6 328.9,140 309.2,146.8 293.9,153.6 281.4,159.9 273.9,166.8 266.5,174.9 
		260.7,185.4 257.6,199.5 272,187.2 278,177.1 286.1,169.9 293.3,166.2 303,161.6 321.5,154.5 338.1,148.3 353.6,141.6 370.2,131.5 
		382.4,119.4 387.7,110.8 392.3,100.9 392.7,93.6 392.7,87.2 392.1,81.8 390.6,80.2 388,80.2 385.7,81.1 380.9,85.6 372.1,91.1 
		363.3,95.6 355.2,98.9 348.3,101.3 341,101.7 330.2,100.5 314.2,98.2 299.5,95.6 283,92.2 262.9,90.2 249.5,89.7 234.1,89.8 
		218.4,90.5 195.7,93 173.2,97.6 156.8,100.3 145.7,101.6 135,101.4 125.9,99.9 118.3,95.7 111.5,91.9 104.4,87.1 99.8,82.3 
		97.3,80.2 94.7,79 92.2,79 89,79.6 88.1,81.3 87.7,84.7 87.7,88.5 88.5,98 90.9,104.6 98.2,118 105.6,126.1 113.4,132.7 
		126.6,140.1 147.3,149.5 163.9,155.3 181,162.1 194.1,168.5 202.4,174.9 205.3,178.7 	"/>
	<polygon id="XMLID_1_" class="st0" points="221.6,231.9 213.7,223.7 208.2,234.2 200.3,244.5 187.8,252.9 176.8,256.5 165.2,257.5 
		152.2,255.5 143.8,250.8 136.3,245.6 129.3,237.6 125.4,229.8 123.1,224.7 122.5,219.3 122.5,213.6 123,213.1 141.5,212.6 
		151.1,214.6 159.6,216.7 167.9,219.2 176.1,223 186.7,229.1 192.7,233.6 196.1,235.9 197.3,236.5 203.1,227.4 203.8,225.9 
		188.5,216.4 171.3,207.8 157.9,203.8 149,202.2 138.8,201 121.5,201 115,202.4 110.2,205.1 109.1,207.4 108.4,210.3 108.4,213.5 
		108.4,217.5 109,221.3 111.8,227.8 114.8,235.6 118.3,242.7 123.9,249.2 129.7,254.4 137.4,260.2 147.3,264.8 157.4,267.1 
		165.3,268.5 175.7,267.7 187.7,265.3 196.2,260.8 206,254.7 212.3,247.1 216.7,242.1 220.1,236.9 	"/>
</g>
</svg>
